<?xml version="1.0" encoding="UTF-8"?>
<svg version="1.1" xmlns="http://www.w3.org/2000/svg" width="48" height="48">
<path d="M0 0 C1.24040039 -0.00193359 1.24040039 -0.00193359 2.50585938 -0.00390625 C3.37662109 -0.00003906 4.24738281 0.00382813 5.14453125 0.0078125 C6.42166992 0.00201172 6.42166992 0.00201172 7.72460938 -0.00390625 C12.27594727 0.00313372 16.46355927 0.38291639 20.95703125 1.1328125 C24.08324012 1.25240788 27.20414409 1.22773876 30.33203125 1.1953125 C31.57919922 1.18854492 31.57919922 1.18854492 32.8515625 1.18164062 C34.88675022 1.16994414 36.92190048 1.15201185 38.95703125 1.1328125 C38.98589662 5.44529859 39.0037838 9.75776012 39.01953125 14.0703125 C39.02791016 15.30201172 39.03628906 16.53371094 39.04492188 17.80273438 C39.04814453 18.97255859 39.05136719 20.14238281 39.0546875 21.34765625 C39.05992432 22.43167725 39.06516113 23.51569824 39.07055664 24.63256836 C38.95703125 27.1328125 38.95703125 27.1328125 37.95703125 28.1328125 C36.60052173 28.23151514 35.23900044 28.26360363 33.87890625 28.265625 C33.04746094 28.26691406 32.21601562 28.26820312 31.359375 28.26953125 C30.48410156 28.26566406 29.60882813 28.26179688 28.70703125 28.2578125 C27.84722656 28.26167969 26.98742188 28.26554687 26.1015625 28.26953125 C25.26496094 28.26824219 24.42835937 28.26695313 23.56640625 28.265625 C22.42123535 28.26393311 22.42123535 28.26393311 21.25292969 28.26220703 C18.95703125 28.1328125 18.95703125 28.1328125 16.47290039 27.63061523 C13.93928816 27.12930176 11.67245341 27.01851945 9.09375 27.03515625 C8.20751953 27.03837891 7.32128906 27.04160156 6.40820312 27.04492188 C5.04018555 27.05749023 5.04018555 27.05749023 3.64453125 27.0703125 C2.24750977 27.07708008 2.24750977 27.07708008 0.82226562 27.08398438 C-1.46621248 27.09572016 -3.75455683 27.11213887 -6.04296875 27.1328125 C-5.90484953 22.82002865 -5.75618766 18.50767297 -5.60546875 14.1953125 C-5.54649414 12.34776367 -5.54649414 12.34776367 -5.48632812 10.46289062 C-5.44443359 9.29306641 -5.40253906 8.12324219 -5.359375 6.91796875 C-5.32271729 5.83394775 -5.28605957 4.74992676 -5.24829102 3.63305664 C-4.91740614 -0.39618473 -3.66653545 0.00549529 0 0 Z " fill="#BF3D55" transform="translate(7.04296875,9.8671875)"/>
<path d="M0 0 C1.18613892 0.00785522 1.18613892 0.00785522 2.39624023 0.01586914 C3.67724609 0.02070313 3.67724609 0.02070313 4.98413086 0.02563477 C5.88196289 0.03401367 6.77979492 0.04239258 7.70483398 0.05102539 C8.6065332 0.05553711 9.50823242 0.06004883 10.43725586 0.06469727 C12.67230988 0.07652295 14.90733 0.09445901 17.14233398 0.11352539 C17.14233398 3.74352539 17.14233398 7.37352539 17.14233398 11.11352539 C16.48233398 11.11352539 15.82233398 11.11352539 15.14233398 11.11352539 C15.46975586 11.81864258 15.79717773 12.52375977 16.13452148 13.25024414 C17.76389205 17.87942485 17.25993127 22.23323784 17.14233398 27.11352539 C10.21233398 27.11352539 3.28233398 27.11352539 -3.85766602 27.11352539 C-3.71758331 22.8007665 -3.57088591 18.48841403 -3.42016602 14.17602539 C-3.36119141 12.32847656 -3.36119141 12.32847656 -3.30102539 10.44360352 C-3.25913086 9.2737793 -3.21723633 8.10395508 -3.17407227 6.89868164 C-3.13741455 5.81466064 -3.10075684 4.73063965 -3.06298828 3.61376953 C-2.78017479 0.1699016 -2.78017479 0.1699016 0 0 Z " fill="#BF8096" transform="translate(4.857666015625,9.886474609375)"/>
<path d="M0 0 C1.65 0 3.3 0 5 0 C5 1.65 5 3.3 5 5 C6.32 5.66 7.64 6.32 9 7 C9.33 6.67 9.66 6.34 10 6 C12.33297433 5.95907063 14.66705225 5.95758277 17 6 C18 8 18 8 18 15 C8.595 15.495 8.595 15.495 -1 16 C-0.67 10.72 -0.34 5.44 0 0 Z " fill="#9F5572" transform="translate(2,21)"/>
<path d="M0 0 C0 5.28 0 10.56 0 16 C-1.32 16 -2.64 16 -4 16 C-3.67 14.35 -3.34 12.7 -3 11 C-6.47147842 10.25042843 -6.47147842 10.25042843 -10 10 C-12.33333333 10 -14.66666667 10 -17 10 C-16.360625 9.525625 -15.72125 9.05125 -15.0625 8.5625 C-13.11706694 7.16261274 -13.11706694 7.16261274 -12 6 C-13.98 6.66 -15.96 7.32 -18 8 C-18 5.69 -18 3.38 -18 1 C-15.37504621 0.83257698 -12.75004205 0.6660283 -10.125 0.5 C-9.00544922 0.42845703 -9.00544922 0.42845703 -7.86328125 0.35546875 C-2.2265625 0 -2.2265625 0 0 0 Z " fill="#1D2F5B" transform="translate(46,11)"/>
<path d="M0 0 C5.61 0.33 11.22 0.66 17 1 C17 2.32 17 3.64 17 5 C17.66 5.66 18.32 6.32 19 7 C14.25 6.125 14.25 6.125 12 5 C12.33 5.99 12.66 6.98 13 8 C16.00847418 9.22520264 16.00847418 9.22520264 19 10 C19 10.33 19 10.66 19 11 C12.73 11 6.46 11 0 11 C0 7.37 0 3.74 0 0 Z " fill="#AE6D86" transform="translate(26,27)"/>
<path d="M0 0 C1.32 0 2.64 0 4 0 C4 3.63 4 7.26 4 11 C4.66 11 5.32 11 6 11 C6 12.65 6 14.3 6 16 C5.34 16 4.68 16 4 16 C4 19.3 4 22.6 4 26 C2.68 26 1.36 26 0 26 C-0.06058594 25.26394531 -0.12117188 24.52789062 -0.18359375 23.76953125 C-0.26738281 22.79371094 -0.35117187 21.81789063 -0.4375 20.8125 C-0.51871094 19.84957031 -0.59992187 18.88664062 -0.68359375 17.89453125 C-0.97666151 15.21350398 -1.42703754 12.6337014 -2 10 C-1.34 10 -0.68 10 0 10 C0 6.7 0 3.4 0 0 Z " fill="#9B0F2B" transform="translate(22,11)"/>
<path d="M0 0 C4.29 0 8.58 0 13 0 C14.77816332 4.4454083 15.23418906 6.28115397 15.125 10.8125 C15.10695313 11.78832031 15.08890625 12.76414062 15.0703125 13.76953125 C15.04710938 14.50558594 15.02390625 15.24164063 15 16 C14.34 15.67 13.68 15.34 13 15 C13 12.69 13 10.38 13 8 C10.2761601 6.63808005 8.01903173 6.93838711 5 7 C2 7 2 7 -1 5 C-0.67 3.35 -0.34 1.7 0 0 Z " fill="#C73A56" transform="translate(7,21)"/>
<path d="M0 0 C0.66 0 1.32 0 2 0 C2 2.64 2 5.28 2 8 C2.55429687 7.69964844 3.10859375 7.39929688 3.6796875 7.08984375 C4.40414063 6.70957031 5.12859375 6.32929688 5.875 5.9375 C6.59429687 5.55464844 7.31359375 5.17179687 8.0546875 4.77734375 C9.01761719 4.39255859 9.01761719 4.39255859 10 4 C10.66 4.33 11.32 4.66 12 5 C9.69 6.32 7.38 7.64 5 9 C5.763125 9 6.52625 9 7.3125 9 C11.05326069 9 14.34046415 9.20874901 18 10 C14.64119635 12.23920243 13.48423396 12.24603334 9.5625 12.1875 C8.61503906 12.18105469 7.66757812 12.17460937 6.69140625 12.16796875 C4 12 4 12 0 11 C0 7.37 0 3.74 0 0 Z " fill="#AD9DAC" transform="translate(26,11)"/>
<path d="M0 0 C2.94887797 0.50842724 5.37371875 1.59306362 8 3 C7.67 4.65 7.34 6.3 7 8 C4.36 8.66 1.72 9.32 -1 10 C-1.02689216 8.52093108 -1.04634621 7.04172517 -1.0625 5.5625 C-1.07410156 4.73878906 -1.08570312 3.91507813 -1.09765625 3.06640625 C-1 1 -1 1 0 0 Z " fill="#944766" transform="translate(3,10)"/>
<path d="M0 0 C4.29 0 8.58 0 13 0 C4.25 7 4.25 7 0 7 C0 4.69 0 2.38 0 0 Z " fill="#233E7A" transform="translate(28,12)"/>
<path d="M0 0 C0.87140625 0.00257812 1.7428125 0.00515625 2.640625 0.0078125 C3.50171875 0.00523438 4.3628125 0.00265625 5.25 0 C7.890625 0.1328125 7.890625 0.1328125 12.890625 1.1328125 C12.890625 4.7628125 12.890625 8.3928125 12.890625 12.1328125 C12.230625 11.8028125 11.570625 11.4728125 10.890625 11.1328125 C10.890625 8.8228125 10.890625 6.5128125 10.890625 4.1328125 C8.1667851 2.77089255 5.90965673 3.07119961 2.890625 3.1328125 C-0.109375 3.1328125 -0.109375 3.1328125 -3.109375 1.1328125 C-2.109375 0.1328125 -2.109375 0.1328125 0 0 Z " fill="#D6C9D5" transform="translate(9.109375,24.8671875)"/>
<path d="M0 0 C2.00256574 1.14134327 4.00199797 2.28818633 6 3.4375 C7.11375 4.07558594 8.2275 4.71367188 9.375 5.37109375 C10.24125 5.90863281 11.1075 6.44617187 12 7 C12 7.33 12 7.66 12 8 C8.04 8 4.08 8 0 8 C0 5.36 0 2.72 0 0 Z " fill="#28427C" transform="translate(28,30)"/>
<path d="M0 0 C3.96 0 7.92 0 12 0 C12 2.64 12 5.28 12 8 C9.99743426 6.85865673 7.99800203 5.71181367 6 4.5625 C4.88625 3.92441406 3.7725 3.28632813 2.625 2.62890625 C1.75875 2.09136719 0.8925 1.55382812 0 1 C0 0.67 0 0.34 0 0 Z " fill="#233E7E" transform="translate(8,10)"/>
<path d="M0 0 C5.61 0.33 11.22 0.66 17 1 C11.95585048 4.36276635 8.96798004 4.03291962 3 3 C2.67 5.64 2.34 8.28 2 11 C1.34 11 0.68 11 0 11 C0 7.37 0 3.74 0 0 Z " fill="#A99FAE" transform="translate(26,27)"/>
<path d="M0 0 C0 2.31 0 4.62 0 7 C-3.96 7 -7.92 7 -12 7 C-11.34 6.34 -10.68 5.68 -10 5 C-9.01 5.33 -8.02 5.66 -7 6 C-6.9175 5.38125 -6.835 4.7625 -6.75 4.125 C-6 2 -6 2 -4.0625 0.75 C-2 0 -2 0 0 0 Z " fill="#163275" transform="translate(20,29)"/>
<path d="M0 0 C0.66 0.33 1.32 0.66 2 1 C2 4 2 4 0 7 C-4.01025005 9.17699288 -7.49793215 9.17655168 -12 9 C-10.05210271 7.46950927 -8.24876109 6.11660676 -6 5.0625 C-3.53361499 3.75223297 -1.89553636 2.03093182 0 0 Z " fill="#C93650" transform="translate(41,12)"/>
<path d="M0 0 C0 2.97 0 5.94 0 9 C-2.31 8.67 -4.62 8.34 -7 8 C-7.33 6.68 -7.66 5.36 -8 4 C-7.01 4 -6.02 4 -5 4 C-4.67 3.01 -4.34 2.02 -4 1 C-1 0 -1 0 0 0 Z " fill="#992039" transform="translate(46,28)"/>
<path d="M0 0 C1.32 0.33 2.64 0.66 4 1 C3.01 1 2.02 1 1 1 C1 8.92 1 16.84 1 25 C1.99 25.33 2.98 25.66 4 26 C2.68 26 1.36 26 0 26 C-0.06058594 25.26394531 -0.12117188 24.52789062 -0.18359375 23.76953125 C-0.26738281 22.79371094 -0.35117187 21.81789063 -0.4375 20.8125 C-0.51871094 19.84957031 -0.59992187 18.88664062 -0.68359375 17.89453125 C-0.97666151 15.21350398 -1.42703754 12.6337014 -2 10 C-1.34 10 -0.68 10 0 10 C0 6.7 0 3.4 0 0 Z " fill="#B21D39" transform="translate(22,11)"/>
<path d="M0 0 C0.66 0 1.32 0 2 0 C2 3.63 2 7.26 2 11 C-2.29 10.67 -6.58 10.34 -11 10 C-7.3558226 7.5705484 -5.28758728 7.83820425 -1 8 C-0.67 5.36 -0.34 2.72 0 0 Z " fill="#D8CED9" transform="translate(20,10)"/>
<path d="M0 0 C1.65 0 3.3 0 5 0 C4.01 2.97 3.02 5.94 2 9 C1.01 9 0.02 9 -1 9 C-0.67 6.03 -0.34 3.06 0 0 Z " fill="#805A6E" transform="translate(2,28)"/>
<path d="M0 0 C2.31 0.66 4.62 1.32 7 2 C3.63000798 4.24666134 2.43894538 4.2457371 -1.5 4.1875 C-2.93859375 4.17783203 -2.93859375 4.17783203 -4.40625 4.16796875 C-7 4 -7 4 -10 3 C-9.67 2.34 -9.34 1.68 -9 1 C-7.700625 1.020625 -6.40125 1.04125 -5.0625 1.0625 C-3.70834367 1.08399454 -2.35243917 1.07148199 -1 1 C-0.67 0.67 -0.34 0.34 0 0 Z " fill="#DACCD3" transform="translate(37,19)"/>
<path d="M0 0 C0.99 0 1.98 0 3 0 C3 1.32 3 2.64 3 4 C3.66 4.33 4.32 4.66 5 5 C4.67 5.99 4.34 6.98 4 8 C2.68 8.33 1.36 8.66 0 9 C0 6.03 0 3.06 0 0 Z " fill="#292249" transform="translate(2,11)"/>
<path d="M0 0 C-0.639375 0.268125 -1.27875 0.53625 -1.9375 0.8125 C-4.33131686 1.88667752 -4.33131686 1.88667752 -5 5 C-7.31 5.33 -9.62 5.66 -12 6 C-4.8 -1.6 -4.8 -1.6 0 0 Z " fill="#908FB0" transform="translate(18,30)"/>
<path d="M0 0 C1.65 0 3.3 0 5 0 C5.33 1.65 5.66 3.3 6 5 C3.03 4.505 3.03 4.505 0 4 C0 2.68 0 1.36 0 0 Z " fill="#C82F4A" transform="translate(15,21)"/>
<path d="M0 0 C1.65 0 3.3 0 5 0 C5 1.32 5 2.64 5 4 C3.35 4.33 1.7 4.66 0 5 C0 3.35 0 1.7 0 0 Z " fill="#6C1934" transform="translate(2,21)"/>
<path d="M0 0 C4.62 0 9.24 0 14 0 C10 2.66666667 10 2.66666667 7 3 C4.645752 2.411438 2.30657014 1.75407101 0 1 C0 0.67 0 0.34 0 0 Z " fill="#DAD9E1" transform="translate(29,28)"/>
<path d="M0 0 C1.485 0.99 1.485 0.99 3 2 C3.1875 5.125 3.1875 5.125 3 8 C2.01 8 1.02 8 0 8 C0 5.36 0 2.72 0 0 Z " fill="#0E2966" transform="translate(28,30)"/>
<path d="M0 0 C0.66 0 1.32 0 2 0 C2 1.65 2 3.3 2 5 C-0.64 5 -3.28 5 -6 5 C-5.34 4.34 -4.68 3.68 -4 3 C-3.01 3.33 -2.02 3.66 -1 4 C-0.67 2.68 -0.34 1.36 0 0 Z " fill="#2A4583" transform="translate(14,31)"/>
<path d="M0 0 C0.99 0 1.98 0 3 0 C3 1.98 3 3.96 3 6 C2.01 6.33 1.02 6.66 0 7 C0 4.69 0 2.38 0 0 Z " fill="#0E2965" transform="translate(28,12)"/>
<path d="M0 0 C0.99 0 1.98 0 3 0 C3 1.65 3 3.3 3 5 C1.68 5 0.36 5 -1 5 C-0.67 3.35 -0.34 1.7 0 0 Z " fill="#721027" transform="translate(43,22)"/>
<path d="M0 0 C1.32 0.33 2.64 0.66 4 1 C4 2.32 4 3.64 4 5 C2.68 5 1.36 5 0 5 C0 3.35 0 1.7 0 0 Z " fill="#AF223D" transform="translate(28,22)"/>
<path d="M0 0 C0.66 0 1.32 0 2 0 C1.625 2.4375 1.625 2.4375 1 5 C0.01 5.495 0.01 5.495 -1 6 C-1.66 5.34 -2.32 4.68 -3 4 C-1.625 2 -1.625 2 0 0 Z " fill="#782A41" transform="translate(44,11)"/>
<path d="M0 0 C0 0.99 0 1.98 0 3 C-2.5 4.6875 -2.5 4.6875 -5 6 C-4.625 3.5625 -4.625 3.5625 -4 1 C-2 0 -2 0 0 0 Z " fill="#AD2F4B" transform="translate(10,30)"/>
<path d="M0 0 C0 1.65 0 3.3 0 5 C-1.65 4.67 -3.3 4.34 -5 4 C-4.67 3.01 -4.34 2.02 -4 1 C-1 0 -1 0 0 0 Z " fill="#041948" transform="translate(46,28)"/>
<path d="M0 0 C1.65 0 3.3 0 5 0 C4 3 4 3 1.9375 4.1875 C1.298125 4.455625 0.65875 4.72375 0 5 C0 3.35 0 1.7 0 0 Z " fill="#0B204E" transform="translate(2,28)"/>
<path d="M0 0 C0.66 0.33 1.32 0.66 2 1 C2 4 2 4 0 7 C-0.66 6.67 -1.32 6.34 -2 6 C-1.67 5.01 -1.34 4.02 -1 3 C-1.66 2.67 -2.32 2.34 -3 2 C-2.01 1.34 -1.02 0.68 0 0 Z " fill="#B67085" transform="translate(41,12)"/>
</svg>
