<?xml version="1.0" encoding="UTF-8"?>
<svg version="1.1" xmlns="http://www.w3.org/2000/svg" width="48" height="48">
<path d="M0 0 C0.81855469 0.00386719 1.63710937 0.00773438 2.48046875 0.01171875 C3.67349609 0.00591797 3.67349609 0.00591797 4.890625 0 C8.45426747 0.00585163 11.81698823 0.1311724 15.3515625 0.640625 C19.6940611 1.25544922 23.9151665 1.24507808 28.29296875 1.19921875 C29.53336914 1.19245117 29.53336914 1.19245117 30.79882812 1.18554688 C32.81774021 1.17387686 34.83661449 1.15594593 36.85546875 1.13671875 C36.88433412 5.44920484 36.9022213 9.76166637 36.91796875 14.07421875 C36.92634766 15.30591797 36.93472656 16.53761719 36.94335938 17.80664062 C36.94658203 18.97646484 36.94980469 20.14628906 36.953125 21.3515625 C36.95836182 22.4355835 36.96359863 23.51960449 36.96899414 24.63647461 C36.85546875 27.13671875 36.85546875 27.13671875 35.85546875 28.13671875 C32.97075222 28.23783253 30.11503744 28.27534663 27.23046875 28.26171875 C26.03744141 28.26751953 26.03744141 28.26751953 24.8203125 28.2734375 C21.25667003 28.26758587 17.89394927 28.1422651 14.359375 27.6328125 C10.0168764 27.01798828 5.795771 27.02835942 1.41796875 27.07421875 C0.17756836 27.08098633 0.17756836 27.08098633 -1.08789062 27.08789062 C-3.10680271 27.09956064 -5.12567699 27.11749157 -7.14453125 27.13671875 C-7.17339662 22.82423266 -7.1912838 18.51177113 -7.20703125 14.19921875 C-7.21541016 12.96751953 -7.22378906 11.73582031 -7.23242188 10.46679688 C-7.23564453 9.29697266 -7.23886719 8.12714844 -7.2421875 6.921875 C-7.24742432 5.837854 -7.25266113 4.75383301 -7.25805664 3.63696289 C-7.03764104 -1.21739449 -4.19413827 0.00695545 0 0 Z " fill="#E54458" transform="translate(9.14453125,9.86328125)"/>
<path d="M0 0 C0.33 0 0.66 0 1 0 C1 2.64 1 5.28 1 8 C2.08796875 7.97679687 3.1759375 7.95359375 4.296875 7.9296875 C12.22812579 7.81382353 19.6634272 8.04428721 27.484375 9.55078125 C32.8135731 10.50242377 37.72656822 10.0289623 43 9 C43.02689216 10.47906892 43.04634621 11.95827483 43.0625 13.4375 C43.07410156 14.26121094 43.08570313 15.08492187 43.09765625 15.93359375 C43 18 43 18 42 19 C39.11528347 19.10111378 36.25956869 19.13862788 33.375 19.125 C32.18197266 19.13080078 32.18197266 19.13080078 30.96484375 19.13671875 C27.40120128 19.13086712 24.03848052 19.00554635 20.50390625 18.49609375 C16.16140765 17.88126953 11.94030225 17.89164067 7.5625 17.9375 C6.32209961 17.94426758 6.32209961 17.94426758 5.05664062 17.95117188 C3.03772854 17.96284189 1.01885426 17.98077282 -1 18 C-1.02684312 15.18743719 -1.04676188 12.37512759 -1.0625 9.5625 C-1.07087891 8.76005859 -1.07925781 7.95761719 -1.08789062 7.13085938 C-1.0965143 5.08704779 -1.0522815 3.04316098 -1 1 C-0.67 0.67 -0.34 0.34 0 0 Z " fill="#2A976C" transform="translate(3,19)"/>
<path d="M0 0 C1.11761719 0.09796875 2.23523438 0.1959375 3.38671875 0.296875 C4.75788026 0.42636779 6.12896607 0.55666332 7.5 0.6875 C9.33984109 0.85940349 11.17968503 1.0312764 13.01953125 1.203125 C18.18061032 1.68849976 23.34058149 2.18480244 28.5 2.6875 C28.5 5.3275 28.5 7.9675 28.5 10.6875 C25.05026545 11.83741152 22.79816398 11.62067663 19.1875 11.3125 C18.07761719 11.22226562 16.96773437 11.13203125 15.82421875 11.0390625 C13.75364676 10.82008309 11.68732426 10.54447794 9.63671875 10.18359375 C5.63834245 9.5512229 1.66442352 9.33381766 -2.375 9.125 C-3.15875 9.08181641 -3.9425 9.03863281 -4.75 8.99414062 C-6.66650649 8.88896649 -8.58323333 8.78782075 -10.5 8.6875 C-10.5 6.0475 -10.5 3.4075 -10.5 0.6875 C-6.82760363 -0.19733463 -3.75578402 -0.33822249 0 0 Z " fill="#FAFBFB" transform="translate(14.5,18.3125)"/>
<path d="M0 0 C0.33 0 0.66 0 1 0 C1 2.64 1 5.28 1 8 C6.61 8 12.22 8 18 8 C17.01 8.495 17.01 8.495 16 9 C16 11.64 16 14.28 16 17 C7.585 17.495 7.585 17.495 -1 18 C-1.020625 15.215625 -1.04125 12.43125 -1.0625 9.5625 C-1.071604 8.68408447 -1.08070801 7.80566895 -1.09008789 6.90063477 C-1.09723091 4.93354026 -1.05031893 2.96646379 -1 1 C-0.67 0.67 -0.34 0.34 0 0 Z " fill="#2E9A70" transform="translate(3,19)"/>
<path d="M0 0 C0 5.61 0 11.22 0 17 C-0.99 17.33 -1.98 17.66 -3 18 C-3 15.36 -3 12.72 -3 10 C-7.95 10 -12.9 10 -18 10 C-17.34 9.67 -16.68 9.34 -16 9 C-16 6.36 -16 3.72 -16 1 C-13.70839646 0.83246763 -11.41671509 0.66599948 -9.125 0.5 C-7.84882812 0.4071875 -6.57265625 0.314375 -5.2578125 0.21875 C-3.50763316 0.10123196 -1.75412035 0 0 0 Z " fill="#E73850" transform="translate(46,11)"/>
<path d="M0 0 C4.92127034 -0.16682272 8.50343896 -0.24828052 13 2 C13 4.64 13 7.28 13 10 C11.02043559 9.85966889 9.04134859 9.7125877 7.0625 9.5625 C5.96035156 9.48128906 4.85820312 9.40007813 3.72265625 9.31640625 C1 9 1 9 0 8 C-0.14115161 5.32941149 -0.04247107 2.67567762 0 0 Z " fill="#015534" transform="translate(19,28)"/>
<path d="M0 0 C4.29 0 8.58 0 13 0 C13 2.64 13 5.28 13 8 C8.52745503 9.49084832 4.47254497 9.49084832 0 8 C0 5.36 0 2.72 0 0 Z " fill="#E0E2E3" transform="translate(30,21)"/>
<path d="M0 0 C1.45823212 -0.0270043 2.91660675 -0.04639787 4.375 -0.0625 C5.18710937 -0.07410156 5.99921875 -0.08570313 6.8359375 -0.09765625 C9 0 9 0 11 1 C11 3.64 11 6.28 11 9 C9.741875 9.020625 8.48375 9.04125 7.1875 9.0625 C6.47980469 9.07410156 5.77210937 9.08570313 5.04296875 9.09765625 C3 9 3 9 0 8 C0 5.36 0 2.72 0 0 Z " fill="#9D1F30" transform="translate(19,11)"/>
<path d="M0 0 C1.45880109 0.14107747 2.91703551 0.28802415 4.375 0.4375 C5.59316406 0.55931641 5.59316406 0.55931641 6.8359375 0.68359375 C9 1 9 1 11 2 C11 4.64 11 7.28 11 10 C9.54119891 9.85892253 8.08296449 9.71197585 6.625 9.5625 C5.40683594 9.44068359 5.40683594 9.44068359 4.1640625 9.31640625 C2 9 2 9 0 8 C0 5.36 0 2.72 0 0 Z " fill="#A0A0A1" transform="translate(19,19)"/>
<path d="M0 0 C0.33 0 0.66 0 1 0 C1 2.64 1 5.28 1 8 C2.65 8 4.3 8 6 8 C6 10.97 6 13.94 6 17 C3.69 17.33 1.38 17.66 -1 18 C-1.02684312 15.18743719 -1.04676188 12.37512759 -1.0625 9.5625 C-1.07087891 8.76005859 -1.07925781 7.95761719 -1.08789062 7.13085938 C-1.0965143 5.08704779 -1.0522815 3.04316098 -1 1 C-0.67 0.67 -0.34 0.34 0 0 Z " fill="#276350" transform="translate(3,19)"/>
<path d="M0 0 C0 5.61 0 11.22 0 17 C-0.99 17.33 -1.98 17.66 -3 18 C-3 15.36 -3 12.72 -3 10 C-3.99 10 -4.98 10 -6 10 C-6 7.36 -6 4.72 -6 2 C-2.25 0 -2.25 0 0 0 Z " fill="#B0243A" transform="translate(46,11)"/>
<path d="M0 0 C1.134375 0.020625 2.26875 0.04125 3.4375 0.0625 C3.4375 2.7025 3.4375 5.3425 3.4375 8.0625 C-3.4375 10.0625 -3.4375 10.0625 -4.5625 10.0625 C-4.58939216 8.58343108 -4.60884621 7.10422517 -4.625 5.625 C-4.63660156 4.80128906 -4.64820313 3.97757813 -4.66015625 3.12890625 C-4.49001835 -0.47121162 -3.73687179 0.06555915 0 0 Z " fill="#B63146" transform="translate(6.5625,9.9375)"/>
<path d="M0 0 C0 0.33 0 0.66 0 1 C-1.98 1 -3.96 1 -6 1 C-6 3.31 -6 5.62 -6 8 C-4.35 8 -2.7 8 -1 8 C-1 8.33 -1 8.66 -1 9 C-4.63 9 -8.26 9 -12 9 C-12 6.36 -12 3.72 -12 1 C-7.9472484 0.01751476 -4.16138263 -0.08159574 0 0 Z " fill="#D8CED1" transform="translate(16,18)"/>
<path d="M0 0 C0 2.97 0 5.94 0 9 C-1.65 9.33 -3.3 9.66 -5 10 C-5 7.36 -5 4.72 -5 2 C-1.125 0 -1.125 0 0 0 Z " fill="#095239" transform="translate(46,28)"/>
<path d="M0 0 C2.64 0 5.28 0 8 0 C7.01 0.66 6.02 1.32 5 2 C4.74984127 5.58357241 4.74984127 5.58357241 5 9 C3.35 8.67 1.7 8.34 0 8 C0 5.36 0 2.72 0 0 Z " fill="#066A44" transform="translate(19,28)"/>
<path d="M0 0 C3.96 0 7.92 0 12 0 C12 0.33 12 0.66 12 1 C9.03 1 6.06 1 3 1 C3 3.64 3 6.28 3 9 C1.35 9 -0.3 9 -2 9 C-1.34 8.67 -0.68 8.34 0 8 C0 5.36 0 2.72 0 0 Z " fill="#BF4252" transform="translate(30,12)"/>
<path d="M0 0 C1.65 0 3.3 0 5 0 C5 2.64 5 5.28 5 8 C3.35 7.67 1.7 7.34 0 7 C0 4.69 0 2.38 0 0 Z " fill="#E42E46" transform="translate(14,11)"/>
<path d="M0 0 C1.32 0 2.64 0 4 0 C4 2.64 4 5.28 4 8 C2.68 8.33 1.36 8.66 0 9 C0 6.03 0 3.06 0 0 Z " fill="#630E1D" transform="translate(2,11)"/>
<path d="M0 0 C0.99 0 1.98 0 3 0 C3 2.64 3 5.28 3 8 C1.68 8 0.36 8 -1 8 C-1.04241723 5.66705225 -1.04092937 3.33297433 -1 1 C-0.67 0.67 -0.34 0.34 0 0 Z " fill="#198F60" transform="translate(16,28)"/>
<path d="M0 0 C1.32 0.33 2.64 0.66 4 1 C4 3.31 4 5.62 4 8 C2.68 8 1.36 8 0 8 C0 5.36 0 2.72 0 0 Z " fill="#C6C3C6" transform="translate(19,19)"/>
<path d="M0 0 C1.32 0 2.64 0 4 0 C4 2.64 4 5.28 4 8 C2.68 7.67 1.36 7.34 0 7 C0 4.69 0 2.38 0 0 Z " fill="#8E0B1D" transform="translate(23,12)"/>
<path d="M0 0 C0.99 0.33 1.98 0.66 3 1 C3 3.64 3 6.28 3 9 C1.35 9 -0.3 9 -2 9 C-1.34 8.67 -0.68 8.34 0 8 C0 5.36 0 2.72 0 0 Z " fill="#10704D" transform="translate(29,29)"/>
<path d="M0 0 C1.32 0 2.64 0 4 0 C4 2.64 4 5.28 4 8 C3.01 8.33 2.02 8.66 1 9 C0.67 6.03 0.34 3.06 0 0 Z " fill="#726F72" transform="translate(42,20)"/>
<path d="M0 0 C0.99 0 1.98 0 3 0 C3 2.64 3 5.28 3 8 C2.01 8.33 1.02 8.66 0 9 C0 6.03 0 3.06 0 0 Z " fill="#033726" transform="translate(2,28)"/>
<path d="M0 0 C0.66 0 1.32 0 2 0 C2 2.97 2 5.94 2 9 C1.01 9 0.02 9 -1 9 C-1.125 2.25 -1.125 2.25 0 0 Z " fill="#6A1321" transform="translate(44,11)"/>
<path d="M0 0 C0.66 0.33 1.32 0.66 2 1 C1.67 3.64 1.34 6.28 1 9 C0.01 8.67 -0.98 8.34 -2 8 C-2.125 5.125 -2.125 5.125 -2 2 C-1.34 1.34 -0.68 0.68 0 0 Z " fill="#278F67" transform="translate(40,29)"/>
<path d="M0 0 C0.99 0 1.98 0 3 0 C3 2.64 3 5.28 3 8 C2.01 8 1.02 8 0 8 C0 5.36 0 2.72 0 0 Z " fill="#8F9196" transform="translate(4,19)"/>
<path d="M0 0 C0.99 0 1.98 0 3 0 C3 2.64 3 5.28 3 8 C2.01 8 1.02 8 0 8 C0 5.36 0 2.72 0 0 Z " fill="#BA1129" transform="translate(19,11)"/>
</svg>
